<svg xmlns="http://www.w3.org/2000/svg" version="1.0" width="300mm" height="200mm" viewBox="0 0 300 200"><path fill="none" stroke="black" stroke-width="0.1" d="M0,20 C4,20.07 10.77,22.06 8.2,18.06 C5.62,14.06 13.62,14.06 12.2,18.06 C10.77,22.06 16,19.56 20,20 C24,20.44 30.31,22.31 28.39,18.31 C26.47,14.31 34.47,14.31 32.39,18.31 C30.31,22.31 36,20.22 40,20 C44,19.78 50.35,17.74 48.08,21.74 C45.8,25.74 53.8,25.74 52.08,21.74 C50.35,17.74 56,19.46 60,20 C64,20.54 70.64,21.5 68.22,17.5 C65.81,13.5 73.81,13.5 72.22,17.5 C70.64,21.5 76,20.32 80,20 C84,19.68 89.91,22.46 87.67,18.46 C85.43,14.46 93.43,14.46 91.67,18.46 C89.91,22.46 96,20.55 100,20 C104,19.45 110.37,22.23 107.8,18.23 C105.23,14.23 113.23,14.23 111.8,18.23 C110.37,22.23 116,19.81 120,20 C124,20.19 129.97,22.48 127.94,18.48 C125.91,14.48 133.91,14.48 131.94,18.48 C129.97,22.48 136,20.5 140,20 C144,19.5 150.15,22.31 147.65,18.31 C145.15,14.31 153.15,14.31 151.65,18.31 C150.15,22.31 156,19.83 160,20 C164,20.17 169.81,18.18 167.62,22.18 C165.43,26.18 173.43,26.18 171.62,22.18 C169.81,18.18 176,20.19 180,20 C184,19.81 190.01,18.15 188.48,22.15 C186.95,26.15 194.95,26.15 192.48,22.15 C190.01,18.15 196,19.64 200,20 C204,20.36 211.12,18.25 208.49,22.25 C205.85,26.25 213.85,26.25 212.49,22.25 C211.12,18.25 216,20.45 220,20 C224,19.55 229.38,21.99 227.61,17.99 C225.83,13.99 233.83,13.99 231.61,17.99 C229.38,21.99 236,20.45 240,20 C244,19.55 249.85,22.31 248.47,18.31 C247.09,14.31 255.09,14.31 252.47,18.31 C249.85,22.31 256,20.59 260,20 C264,19.41 270.69,21.77 268.42,17.77 C266.16,13.77 274.16,13.77 272.42,17.77 C270.69,21.77 276,19.72 280,20 C284,20.28 289.99,22.62 288.39,18.62 C286.79,14.62 294.79,14.62 292.39,18.62 C289.99,22.62 296,20.42 300,20 M0,40 C4,40.36 10.6,38.2 8.58,42.2 C6.55,46.2 14.55,46.2 12.58,42.2 C10.6,38.2 16,39.36 20,40 C24,40.64 29.82,37.96 27.62,41.96 C25.42,45.96 33.42,45.96 31.62,41.96 C29.82,37.96 36,39.62 40,40 C44,40.38 49.68,38.15 47.55,42.15 C45.42,46.15 53.42,46.15 51.55,42.15 C49.68,38.15 56,39.54 60,40 C64,40.46 70.12,42.31 68.02,38.31 C65.92,34.31 73.92,34.31 72.02,38.31 C70.12,42.31 76,40.51 80,40 C84,39.49 89.54,41.53 87.47,37.53 C85.39,33.53 93.39,33.53 91.47,37.53 C89.54,41.53 96,39.53 100,40 C104,40.47 109.67,38.32 108.19,42.32 C106.71,46.32 114.71,46.32 112.19,42.32 C109.67,38.32 116,39.99 120,40 C124,40.01 129.6,41.76 127.87,37.76 C126.14,33.76 134.14,33.76 131.87,37.76 C129.6,41.76 136,39.94 140,40 C144,40.06 149.31,41.43 147.46,37.43 C145.62,33.43 153.62,33.43 151.46,37.43 C149.31,41.43 156,40.3 160,40 C164,39.7 170.02,42.14 167.73,38.14 C165.45,34.14 173.45,34.14 171.73,38.14 C170.02,42.14 176,39.51 180,40 C184,40.49 190.8,42.56 188.15,38.56 C185.49,34.56 193.49,34.56 192.15,38.56 C190.8,42.56 196,40.29 200,40 C204,39.71 209.66,38.54 207.72,42.54 C205.77,46.54 213.77,46.54 211.72,42.54 C209.66,38.54 216,40.24 220,40 C224,39.76 229.75,42.4 228.33,38.4 C226.91,34.4 234.91,34.4 232.33,38.4 C229.75,42.4 236,40.43 240,40 C244,39.57 249.67,42 248.26,38 C246.85,34 254.85,34 252.26,38 C249.67,42 256,40.49 260,40 C264,39.51 270.82,38.13 268.23,42.13 C265.64,46.13 273.64,46.13 272.23,42.13 C270.82,38.13 276,39.54 280,40 C284,40.46 289.96,38.54 288.37,42.54 C286.78,46.54 294.78,46.54 292.37,42.54 C289.96,38.54 296,39.56 300,40 M0,60 C4,60.16 9.58,58.42 8.02,62.42 C6.46,66.42 14.46,66.42 12.02,62.42 C9.58,58.42 16,60.45 20,60 C24,59.55 30.8,61.99 28.34,57.99 C25.89,53.99 33.89,53.99 32.34,57.99 C30.8,61.99 36,60.06 40,60 C44,59.94 49.71,62.55 47.56,58.55 C45.42,54.55 53.42,54.55 51.56,58.55 C49.71,62.55 56,60.56 60,60 C64,59.44 70.13,62.55 68.08,58.55 C66.04,54.55 74.04,54.55 72.08,58.55 C70.13,62.55 76,59.75 80,60 C84,60.25 89.75,62.25 88.08,58.25 C86.42,54.25 94.42,54.25 92.08,58.25 C89.75,62.25 96,60.42 100,60 C104,59.58 110.03,58.49 107.38,62.49 C104.73,66.49 112.73,66.49 111.38,62.49 C110.03,58.49 116,60.11 120,60 C124,59.89 129.29,58.2 127.57,62.2 C125.86,66.2 133.86,66.2 131.57,62.2 C129.29,58.2 136,59.51 140,60 C144,60.49 150.17,58.37 148.56,62.37 C146.95,66.37 154.95,66.37 152.56,62.37 C150.17,58.37 156,60.49 160,60 C164,59.51 169.69,58.04 168.21,62.04 C166.72,66.04 174.72,66.04 172.21,62.04 C169.69,58.04 176,60.22 180,60 C184,59.78 189.51,61.72 187.73,57.72 C185.95,53.72 193.95,53.72 191.73,57.72 C189.51,61.72 196,59.46 200,60 C204,60.54 208.94,58.16 207.41,62.16 C205.89,66.16 213.89,66.16 211.41,62.16 C208.94,58.16 216,59.44 220,60 C224,60.56 230.56,61.99 228.14,57.99 C225.73,53.99 233.73,53.99 232.14,57.99 C230.56,61.99 236,59.77 240,60 C244,60.23 249.84,58.65 247.89,62.65 C245.93,66.65 253.93,66.65 251.89,62.65 C249.84,58.65 256,60.38 260,60 C264,59.62 270.97,62.09 268.64,58.09 C266.3,54.09 274.3,54.09 272.64,58.09 C270.97,62.09 276,60.11 280,60 C284,59.89 290.57,57.36 288.47,61.36 C286.38,65.36 294.38,65.36 292.47,61.36 C290.57,57.36 296,59.39 300,60 M0,80 C4,80.28 9.45,82.57 7.85,78.57 C6.26,74.57 14.26,74.57 11.85,78.57 C9.45,82.57 16,79.42 20,80 C24,80.58 29.3,78.32 27.77,82.32 C26.23,86.32 34.23,86.32 31.77,82.32 C29.3,78.32 36,80.21 40,80 C44,79.79 50.65,78.42 48.35,82.42 C46.05,86.42 54.05,86.42 52.35,82.42 C50.65,78.42 56,80.05 60,80 C64,79.95 69.76,82.05 68.12,78.05 C66.49,74.05 74.49,74.05 72.12,78.05 C69.76,82.05 76,79.46 80,80 C84,80.54 89.56,82.57 87.99,78.57 C86.41,74.57 94.41,74.57 91.99,78.57 C89.56,82.57 96,79.75 100,80 C104,80.25 109.02,78.36 107.52,82.36 C106.02,86.36 114.02,86.36 111.52,82.36 C109.02,78.36 116,79.52 120,80 C124,80.48 129.52,78.03 127.95,82.03 C126.39,86.03 134.39,86.03 131.95,82.03 C129.52,78.03 136,79.4 140,80 C144,80.6 149.86,78.01 148.15,82.01 C146.43,86.01 154.43,86.01 152.15,82.01 C149.86,78.01 156,80.51 160,80 C164,79.49 170.1,82.1 168,78.1 C165.89,74.1 173.89,74.1 172,78.1 C170.1,82.1 176,80.66 180,80 C184,79.34 189.51,82.21 187.76,78.21 C186.02,74.21 194.02,74.21 191.76,78.21 C189.51,82.21 196,79.92 200,80 C204,80.08 210.3,78.21 207.82,82.21 C205.34,86.21 213.34,86.21 211.82,82.21 C210.3,78.21 216,79.99 220,80 C224,80.01 230.7,78.34 228.07,82.34 C225.44,86.34 233.44,86.34 232.07,82.34 C230.7,78.34 236,80.24 240,80 C244,79.76 248.85,82.46 247.43,78.46 C246.02,74.46 254.02,74.46 251.43,78.46 C248.85,82.46 256,79.51 260,80 C264,80.49 269.98,78.15 267.43,82.15 C264.89,86.15 272.89,86.15 271.43,82.15 C269.98,78.15 276,80.27 280,80 C284,79.73 290.81,82.55 288.5,78.55 C286.2,74.55 294.2,74.55 292.5,78.55 C290.81,82.55 296,80.11 300,80 M0,100 C4,99.75 9.55,101.77 7.69,97.77 C5.83,93.77 13.83,93.77 11.69,97.77 C9.55,101.77 16,100.11 20,100 C24,99.89 30.09,98.29 28.05,102.29 C26.02,106.29 34.02,106.29 32.05,102.29 C30.09,98.29 36,100.15 40,100 C44,99.85 50.17,98.53 48.3,102.53 C46.42,106.53 54.42,106.53 52.3,102.53 C50.17,98.53 56,100.1 60,100 C64,99.9 70.35,98.15 68.48,102.15 C66.6,106.15 74.6,106.15 72.48,102.15 C70.35,98.15 76,99.53 80,100 C84,100.47 90,101.48 87.86,97.48 C85.71,93.48 93.71,93.48 91.86,97.48 C90,101.48 96,99.5 100,100 C104,100.5 109.53,97.88 107.45,101.88 C105.38,105.88 113.38,105.88 111.45,101.88 C109.53,97.88 116,100.16 120,100 C124,99.84 129.23,102.58 127.48,98.58 C125.72,94.58 133.72,94.58 131.48,98.58 C129.23,102.58 136,100.53 140,100 C144,99.47 150.25,97.61 148.28,101.61 C146.3,105.61 154.3,105.61 152.28,101.61 C150.25,97.61 156,99.71 160,100 C164,100.29 170.83,101.69 168.46,97.69 C166.09,93.69 174.09,93.69 172.46,97.69 C170.83,101.69 176,100.53 180,100 C184,99.47 189.6,102.01 187.71,98.01 C185.81,94.01 193.81,94.01 191.71,98.01 C189.6,102.01 196,100.2 200,100 C204,99.8 211.12,101.93 208.55,97.93 C205.98,93.93 213.98,93.93 212.55,97.93 C211.12,101.93 216,99.86 220,100 C224,100.14 229.4,97.84 227.5,101.84 C225.61,105.84 233.61,105.84 231.5,101.84 C229.4,97.84 236,99.43 240,100 C244,100.57 250.18,101.88 248,97.88 C245.82,93.88 253.82,93.88 252,97.88 C250.18,101.88 256,100.41 260,100 C264,99.59 270.48,102.58 268.01,98.58 C265.54,94.58 273.54,94.58 272.01,98.58 C270.48,102.58 276,99.39 280,100 C284,100.61 290.28,98.55 288.06,102.55 C285.84,106.55 293.84,106.55 292.06,102.55 C290.28,98.55 296,100.07 300,100 M0,120 C4,120.62 11.13,122.61 8.5,118.61 C5.86,114.61 13.86,114.61 12.5,118.61 C11.13,122.61 16,120.14 20,120 C24,119.86 30.33,122.27 28.5,118.27 C26.67,114.27 34.67,114.27 32.5,118.27 C30.33,122.27 36,119.71 40,120 C44,120.29 50.38,118.52 47.93,122.52 C45.48,126.52 53.48,126.52 51.93,122.52 C50.38,118.52 56,120.19 60,120 C64,119.81 69.73,121.85 67.69,117.85 C65.66,113.85 73.66,113.85 71.69,117.85 C69.73,121.85 76,120.34 80,120 C84,119.66 90.01,118.63 88.59,122.63 C87.18,126.63 95.18,126.63 92.59,122.63 C90.01,118.63 96,119.46 100,120 C104,120.54 109.04,121.74 107.44,117.74 C105.83,113.74 113.83,113.74 111.44,117.74 C109.04,121.74 116,120.01 120,120 C124,119.99 130.05,118.52 128.64,122.52 C127.24,126.52 135.24,126.52 132.64,122.52 C130.05,118.52 136,119.77 140,120 C144,120.23 149.46,118.64 147.54,122.64 C145.62,126.64 153.62,126.64 151.54,122.64 C149.46,118.64 156,119.42 160,120 C164,120.58 170.65,122.51 168.47,118.51 C166.29,114.51 174.29,114.51 172.47,118.51 C170.65,122.51 176,120.14 180,120 C184,119.86 190.11,122.07 187.49,118.07 C184.87,114.07 192.87,114.07 191.49,118.07 C190.11,122.07 196,119.72 200,120 C204,120.28 208.89,121.86 207.52,117.86 C206.15,113.86 214.15,113.86 211.52,117.86 C208.89,121.86 216,119.85 220,120 C224,120.15 230.99,117.63 228.38,121.63 C225.77,125.63 233.77,125.63 232.38,121.63 C230.99,117.63 236,120.27 240,120 C244,119.73 249.66,121.57 247.96,117.57 C246.27,113.57 254.27,113.57 251.96,117.57 C249.66,121.57 256,120.1 260,120 C264,119.9 269.15,117.56 267.36,121.56 C265.57,125.56 273.57,125.56 271.36,121.56 C269.15,117.56 276,120.2 280,120 C284,119.8 289.92,118.17 287.51,122.17 C285.1,126.17 293.1,126.17 291.51,122.17 C289.92,118.17 296,120.11 300,120 M0,140 C4,140.63 9.92,138.39 8.16,142.39 C6.39,146.39 14.39,146.39 12.16,142.39 C9.92,138.39 16,139.84 20,140 C24,140.16 30.23,138.38 28,142.38 C25.76,146.38 33.76,146.38 32,142.38 C30.23,138.38 36,140.08 40,140 C44,139.92 49.42,138.38 48.05,142.38 C46.68,146.38 54.68,146.38 52.05,142.38 C49.42,138.38 56,140.22 60,140 C64,139.78 69.43,138.1 67.62,142.1 C65.82,146.1 73.82,146.1 71.62,142.1 C69.43,138.1 76,140.66 80,140 C84,139.34 91.09,141.47 88.55,137.47 C86.01,133.47 94.01,133.47 92.55,137.47 C91.09,141.47 96,140.5 100,140 C104,139.5 109.28,141.86 107.61,137.86 C105.95,133.86 113.95,133.86 111.61,137.86 C109.28,141.86 116,140.41 120,140 C124,139.59 130.17,141.99 127.59,137.99 C125.01,133.99 133.01,133.99 131.59,137.99 C130.17,141.99 136,139.94 140,140 C144,140.06 150.04,138.05 147.91,142.05 C145.77,146.05 153.77,146.05 151.91,142.05 C150.04,138.05 156,140.64 160,140 C164,139.36 170.18,138.62 168.55,142.62 C166.92,146.62 174.92,146.62 172.55,142.62 C170.18,138.62 176,140.1 180,140 C184,139.9 190.99,142.37 188.36,138.37 C185.73,134.37 193.73,134.37 192.36,138.37 C190.99,142.37 196,139.67 200,140 C204,140.33 209.31,142.43 207.41,138.43 C205.51,134.43 213.51,134.43 211.41,138.43 C209.31,142.43 216,139.7 220,140 C224,140.3 231.02,137.39 228.47,141.39 C225.92,145.39 233.92,145.39 232.47,141.39 C231.02,137.39 236,140.28 240,140 C244,139.72 249.46,137.5 247.47,141.5 C245.47,145.5 253.47,145.5 251.47,141.5 C249.46,137.5 256,140.1 260,140 C264,139.9 270.1,142.42 268.08,138.42 C266.07,134.42 274.07,134.42 272.08,138.42 C270.1,142.42 276,140.65 280,140 C284,139.35 290.14,137.47 288.16,141.47 C286.17,145.47 294.17,145.47 292.16,141.47 C290.14,137.47 296,139.54 300,140 M0,160 C4,159.74 9.49,162.4 7.41,158.4 C5.32,154.4 13.32,154.4 11.41,158.4 C9.49,162.4 16,159.63 20,160 C24,160.37 29.7,161.77 28.26,157.77 C26.81,153.77 34.81,153.77 32.26,157.77 C29.7,161.77 36,160.62 40,160 C44,159.38 50.56,157.73 48.2,161.73 C45.84,165.73 53.84,165.73 52.2,161.73 C50.56,157.73 56,159.59 60,160 C64,160.41 70.32,158.07 68.33,162.07 C66.35,166.07 74.35,166.07 72.33,162.07 C70.32,158.07 76,160.48 80,160 C84,159.52 90.34,161.75 88.56,157.75 C86.79,153.75 94.79,153.75 92.56,157.75 C90.34,161.75 96,160.47 100,160 C104,159.53 110.31,161.88 107.68,157.88 C105.04,153.88 113.04,153.88 111.68,157.88 C110.31,161.88 116,159.71 120,160 C124,160.29 130.6,158.42 128.11,162.42 C125.63,166.42 133.63,166.42 132.11,162.42 C130.6,158.42 136,160.03 140,160 C144,159.97 150.57,161.41 148.55,157.41 C146.53,153.41 154.53,153.41 152.55,157.41 C150.57,161.41 156,159.52 160,160 C164,160.48 169.92,157.57 168.06,161.57 C166.2,165.57 174.2,165.57 172.06,161.57 C169.92,157.57 176,160.09 180,160 C184,159.91 190.39,162.52 188.53,158.52 C186.66,154.52 194.66,154.52 192.53,158.52 C190.39,162.52 196,159.44 200,160 C204,160.56 209.86,157.87 207.68,161.87 C205.5,165.87 213.5,165.87 211.68,161.87 C209.86,157.87 216,160.15 220,160 C224,159.85 230.16,157.47 228.56,161.47 C226.96,165.47 234.96,165.47 232.56,161.47 C230.16,157.47 236,160.14 240,160 C244,159.86 250.34,161.63 248,157.63 C245.66,153.63 253.66,153.63 252,157.63 C250.34,161.63 256,159.49 260,160 C264,160.51 270.05,162.27 267.81,158.27 C265.57,154.27 273.57,154.27 271.81,158.27 C270.05,162.27 276,160.63 280,160 C284,159.37 290.37,157.6 288.5,161.6 C286.63,165.6 294.63,165.6 292.5,161.6 C290.37,157.6 296,160.04 300,160 M0,180 C4,180.04 11.03,177.81 8.52,181.81 C6,185.81 14,185.81 12.52,181.81 C11.03,177.81 16,179.64 20,180 C24,180.36 29.71,181.96 28.22,177.96 C26.73,173.96 34.73,173.96 32.22,177.96 C29.71,181.96 36,180.49 40,180 C44,179.51 50.05,181.34 48.39,177.34 C46.72,173.34 54.72,173.34 52.39,177.34 C50.05,181.34 56,180.27 60,180 C64,179.73 69.73,182.42 68.18,178.42 C66.62,174.42 74.62,174.42 72.18,178.42 C69.73,182.42 76,179.89 80,180 C84,180.11 88.81,178.19 87.45,182.19 C86.1,186.19 94.1,186.19 91.45,182.19 C88.81,178.19 96,180.1 100,180 C104,179.9 109.84,181.73 107.98,177.73 C106.12,173.73 114.12,173.73 111.98,177.73 C109.84,181.73 116,179.64 120,180 C124,180.36 130.18,177.39 128.23,181.39 C126.29,185.39 134.29,185.39 132.23,181.39 C130.18,177.39 136,179.94 140,180 C144,180.06 150.29,178.1 148.19,182.1 C146.09,186.1 154.09,186.1 152.19,182.1 C150.29,178.1 156,180.23 160,180 C164,179.77 169.15,177.4 167.62,181.4 C166.1,185.4 174.1,185.4 171.62,181.4 C169.15,177.4 176,180.48 180,180 C184,179.52 189.76,181.49 188.28,177.49 C186.8,173.49 194.8,173.49 192.28,177.49 C189.76,181.49 196,179.94 200,180 C204,180.06 210.85,178.26 208.3,182.26 C205.76,186.26 213.76,186.26 212.3,182.26 C210.85,178.26 216,179.46 220,180 C224,180.54 230.7,182.38 228.35,178.38 C226.01,174.38 234.01,174.38 232.35,178.38 C230.7,182.38 236,180.24 240,180 C244,179.76 249.04,178.63 247.4,182.63 C245.76,186.63 253.76,186.63 251.4,182.63 C249.04,178.63 256,180.55 260,180 C264,179.45 270.1,182.61 267.72,178.61 C265.34,174.61 273.34,174.61 271.72,178.61 C270.1,182.61 276,179.64 280,180 C284,180.36 290.54,181.44 287.91,177.44 C285.28,173.44 293.28,173.44 291.91,177.44 C290.54,181.44 296,180.49 300,180 M20,0 C20.02,4 21.81,10.48 17.81,7.84 C13.81,5.21 13.81,13.21 17.81,11.84 C21.81,10.48 20.52,16 20,20 C19.48,24 21.48,30.99 17.48,28.55 C13.48,26.11 13.48,34.11 17.48,32.55 C21.48,30.99 19.43,36 20,40 C20.57,44 17.83,49.76 21.83,47.64 C25.83,45.52 25.83,53.52 21.83,51.64 C17.83,49.76 19.47,56 20,60 C20.53,64 18.18,69.09 22.18,67.73 C26.18,66.37 26.18,74.37 22.18,71.73 C18.18,69.09 19.61,76 20,80 C20.39,84 18.61,89.54 22.61,88.15 C26.61,86.76 26.61,94.76 22.61,92.15 C18.61,89.54 19.67,96 20,100 C20.33,104 22.24,110.42 18.24,108.39 C14.24,106.35 14.24,114.35 18.24,112.39 C22.24,110.42 19.88,116 20,120 C20.12,124 22.16,129.16 18.16,127.51 C14.16,125.87 14.16,133.87 18.16,131.51 C22.16,129.16 20.58,136 20,140 C19.42,144 17.39,149.93 21.39,147.39 C25.39,144.86 25.39,152.86 21.39,151.39 C17.39,149.93 20.56,156 20,160 C19.44,164 17.67,170.71 21.67,168.12 C25.67,165.54 25.67,173.54 21.67,172.12 C17.67,170.71 19.72,176 20,180 C20.28,184 21.81,189.15 17.81,187.69 C13.81,186.22 13.81,194.22 17.81,191.69 C21.81,189.15 20.33,196 20,200 M40,0 C40.18,4 38.12,10.05 42.12,7.55 C46.12,5.05 46.12,13.05 42.12,11.55 C38.12,10.05 39.74,16 40,20 C40.26,24 42.3,30.19 38.3,28.52 C34.3,26.85 34.3,34.85 38.3,32.52 C42.3,30.19 39.56,36 40,40 C40.44,44 41.57,50.27 37.57,48.07 C33.57,45.87 33.57,53.87 37.57,52.07 C41.57,50.27 40.35,56 40,60 C39.65,64 41.86,68.95 37.86,67.46 C33.86,65.98 33.86,73.98 37.86,71.46 C41.86,68.95 39.85,76 40,80 C40.15,84 41.89,89.94 37.89,87.55 C33.89,85.15 33.89,93.15 37.89,91.55 C41.89,89.94 40.65,96 40,100 C39.35,104 41.75,108.89 37.75,107.43 C33.75,105.97 33.75,113.97 37.75,111.43 C41.75,108.89 40.38,116 40,120 C39.62,124 38.54,129.2 42.54,127.41 C46.54,125.63 46.54,133.63 42.54,131.41 C38.54,129.2 39.98,136 40,140 C40.02,144 38.6,150.02 42.6,147.65 C46.6,145.28 46.6,153.28 42.6,151.65 C38.6,150.02 40.47,156 40,160 C39.53,164 38.1,170.48 42.1,168.63 C46.1,166.77 46.1,174.77 42.1,172.63 C38.1,170.48 39.76,176 40,180 C40.24,184 42.07,190.18 38.07,187.55 C34.07,184.91 34.07,192.91 38.07,191.55 C42.07,190.18 40.5,196 40,200 M60,0 C60.24,4 62.01,10.5 58.01,7.97 C54.01,5.45 54.01,13.45 58.01,11.97 C62.01,10.5 59.91,16 60,20 C60.09,24 57.63,29.79 61.63,27.68 C65.63,25.57 65.63,33.57 61.63,31.68 C57.63,29.79 60.28,36 60,40 C59.72,44 58.56,50.17 62.56,47.64 C66.56,45.1 66.56,53.1 62.56,51.64 C58.56,50.17 60.06,56 60,60 C59.94,64 62.33,70.32 58.33,68.53 C54.33,66.73 54.33,74.73 58.33,72.53 C62.33,70.32 59.54,76 60,80 C60.46,84 57.71,90.5 61.71,87.84 C65.71,85.19 65.71,93.19 61.71,91.84 C57.71,90.5 60.11,96 60,100 C59.89,104 61.77,109.8 57.77,108.46 C53.77,107.12 53.77,115.12 57.77,112.46 C61.77,109.8 59.61,116 60,120 C60.39,124 62.05,129.79 58.05,128.06 C54.05,126.33 54.05,134.33 58.05,132.06 C62.05,129.79 59.69,136 60,140 C60.31,144 62.44,149.54 58.44,147.82 C54.44,146.1 54.44,154.1 58.44,151.82 C62.44,149.54 60.4,156 60,160 C59.6,164 58.52,169.62 62.52,167.65 C66.52,165.68 66.52,173.68 62.52,171.65 C58.52,169.62 59.65,176 60,180 C60.35,184 58.65,190.64 62.65,188.03 C66.65,185.42 66.65,193.42 62.65,192.03 C58.65,190.64 60.62,196 60,200 M80,0 C79.74,4 82.27,10.63 78.27,8.52 C74.27,6.41 74.27,14.41 78.27,12.52 C82.27,10.63 79.6,16 80,20 C80.4,24 82.19,30.19 78.19,28.1 C74.19,26.01 74.19,34.01 78.19,32.1 C82.19,30.19 79.7,36 80,40 C80.3,44 82.4,50.65 78.4,48.29 C74.4,45.92 74.4,53.92 78.4,52.29 C82.4,50.65 79.35,56 80,60 C80.65,64 82.01,69.63 78.01,67.53 C74.01,65.42 74.01,73.42 78.01,71.53 C82.01,69.63 80.48,76 80,80 C79.52,84 82.29,90.32 78.29,88.37 C74.29,86.42 74.29,94.42 78.29,92.37 C82.29,90.32 80.02,96 80,100 C79.98,104 81.36,110.77 77.36,108.46 C73.36,106.14 73.36,114.14 77.36,112.46 C81.36,110.77 80.18,116 80,120 C79.82,124 77.53,128.72 81.53,127.35 C85.53,125.97 85.53,133.97 81.53,131.35 C77.53,128.72 79.69,136 80,140 C80.31,144 82.1,150.36 78.1,147.72 C74.1,145.08 74.1,153.08 78.1,151.72 C82.1,150.36 79.56,156 80,160 C80.44,164 77.96,169.71 81.96,168.02 C85.96,166.32 85.96,174.32 81.96,172.02 C77.96,169.71 80.47,176 80,180 C79.53,184 81.86,190.08 77.86,187.72 C73.86,185.36 73.86,193.36 77.86,191.72 C81.86,190.08 79.77,196 80,200 M100,0 C100,4 97.61,10.96 101.61,8.62 C105.61,6.28 105.61,14.28 101.61,12.62 C97.61,10.96 99.89,16 100,20 C100.11,24 97.63,29.87 101.63,28.38 C105.63,26.89 105.63,34.89 101.63,32.38 C97.63,29.87 99.54,36 100,40 C100.46,44 102.15,50.03 98.15,48.51 C94.15,46.98 94.15,54.98 98.15,52.51 C102.15,50.03 100.21,56 100,60 C99.79,64 98.32,70.16 102.32,67.6 C106.32,65.03 106.32,73.03 102.32,71.6 C98.32,70.16 99.75,76 100,80 C100.25,84 101.79,90.41 97.79,88.28 C93.79,86.15 93.79,94.15 97.79,92.28 C101.79,90.41 99.94,96 100,100 C100.06,104 101.56,110.42 97.56,108.21 C93.56,106 93.56,114 97.56,112.21 C101.56,110.42 99.79,116 100,120 C100.21,124 101.39,130.04 97.39,128.63 C93.39,127.21 93.39,135.21 97.39,132.63 C101.39,130.04 100.03,136 100,140 C99.97,144 102.48,150.64 98.48,148.4 C94.48,146.17 94.48,154.17 98.48,152.4 C102.48,150.64 99.85,156 100,160 C100.15,164 98.36,169.28 102.36,167.47 C106.36,165.67 106.36,173.67 102.36,171.47 C98.36,169.28 99.88,176 100,180 C100.12,184 98.54,190.32 102.54,187.95 C106.54,185.59 106.54,193.59 102.54,191.95 C98.54,190.32 100,196 100,200 M120,0 C119.65,4 118.38,8.99 122.38,7.57 C126.38,6.15 126.38,14.15 122.38,11.57 C118.38,8.99 119.83,16 120,20 C120.17,24 117.94,30.5 121.94,28.46 C125.94,26.42 125.94,34.42 121.94,32.46 C117.94,30.5 119.75,36 120,40 C120.25,44 121.66,48.89 117.66,47.37 C113.66,45.86 113.66,53.86 117.66,51.37 C121.66,48.89 120.31,56 120,60 C119.69,64 122.33,70.08 118.33,68.17 C114.33,66.26 114.33,74.26 118.33,72.17 C122.33,70.08 119.52,76 120,80 C120.48,84 118.44,89.69 122.44,87.66 C126.44,85.64 126.44,93.64 122.44,91.66 C118.44,89.69 120.49,96 120,100 C119.51,104 117.88,110.49 121.88,108.22 C125.88,105.95 125.88,113.95 121.88,112.22 C117.88,110.49 119.37,116 120,120 C120.63,124 122.49,129.24 118.49,127.74 C114.49,126.24 114.49,134.24 118.49,131.74 C122.49,129.24 119.64,136 120,140 C120.36,144 118.43,150.07 122.43,147.59 C126.43,145.11 126.43,153.11 122.43,151.59 C118.43,150.07 119.42,156 120,160 C120.58,164 117.57,169.82 121.57,167.82 C125.57,165.81 125.57,173.81 121.57,171.82 C117.57,169.82 120.26,176 120,180 C119.74,184 122.29,189.23 118.29,187.62 C114.29,186 114.29,194 118.29,191.62 C122.29,189.23 120.48,196 120,200 M140,0 C140.45,4 141.54,9.56 137.54,7.98 C133.54,6.41 133.54,14.41 137.54,11.98 C141.54,9.56 139.36,16 140,20 C140.64,24 138.63,29.93 142.63,27.62 C146.63,25.32 146.63,33.32 142.63,31.62 C138.63,29.93 140.03,36 140,40 C139.97,44 138.6,50.02 142.6,47.75 C146.6,45.48 146.6,53.48 142.6,51.75 C138.6,50.02 139.36,56 140,60 C140.64,64 137.37,70.65 141.37,68.41 C145.37,66.17 145.37,74.17 141.37,72.41 C137.37,70.65 139.83,76 140,80 C140.17,84 137.47,89.13 141.47,87.54 C145.47,85.96 145.47,93.96 141.47,91.54 C137.47,89.13 140.13,96 140,100 C139.87,104 138.55,109.87 142.55,108.44 C146.55,107.01 146.55,115.01 142.55,112.44 C138.55,109.87 139.49,116 140,120 C140.51,124 137.58,130.38 141.58,128.23 C145.58,126.09 145.58,134.09 141.58,132.23 C137.58,130.38 140.16,136 140,140 C139.84,144 142.52,150.39 138.52,148.21 C134.52,146.03 134.52,154.03 138.52,152.21 C142.52,150.39 140.05,156 140,160 C139.95,164 137.68,170.15 141.68,167.56 C145.68,164.96 145.68,172.96 141.68,171.56 C137.68,170.15 139.48,176 140,180 C140.52,184 141.98,190.18 137.98,187.94 C133.98,185.7 133.98,193.7 137.98,191.94 C141.98,190.18 139.96,196 140,200 M160,0 C159.67,4 158.37,10.49 162.37,8.52 C166.37,6.55 166.37,14.55 162.37,12.52 C158.37,10.49 160.1,16 160,20 C159.9,24 158.11,29.03 162.11,27.63 C166.11,26.22 166.11,34.22 162.11,31.63 C158.11,29.03 160.06,36 160,40 C159.94,44 158.63,49.14 162.63,47.6 C166.63,46.06 166.63,54.06 162.63,51.6 C158.63,49.14 159.98,56 160,60 C160.02,64 158.09,70.82 162.09,68.64 C166.09,66.46 166.09,74.46 162.09,72.64 C158.09,70.82 160.33,76 160,80 C159.67,84 162.61,90.02 158.61,87.5 C154.61,84.97 154.61,92.97 158.61,91.5 C162.61,90.02 159.78,96 160,100 C160.22,104 157.93,109.43 161.93,108.08 C165.93,106.73 165.93,114.73 161.93,112.08 C157.93,109.43 159.84,116 160,120 C160.16,124 162.32,129.79 158.32,127.83 C154.32,125.86 154.32,133.86 158.32,131.83 C162.32,129.79 160.51,136 160,140 C159.49,144 162.48,150.07 158.48,148.22 C154.48,146.38 154.48,154.38 158.48,152.22 C162.48,150.07 160.56,156 160,160 C159.44,164 162.09,169.55 158.09,167.84 C154.09,166.13 154.09,174.13 158.09,171.84 C162.09,169.55 160.5,176 160,180 C159.5,184 161.62,189.96 157.62,187.36 C153.62,184.76 153.62,192.76 157.62,191.36 C161.62,189.96 160.6,196 160,200 M180,0 C180.59,4 178.49,9.84 182.49,7.56 C186.49,5.28 186.49,13.28 182.49,11.56 C178.49,9.84 179.39,16 180,20 C180.61,24 181.72,29.87 177.72,28.5 C173.72,27.13 173.72,35.13 177.72,32.5 C181.72,29.87 179.93,36 180,40 C180.07,44 177.57,49.6 181.57,47.64 C185.57,45.67 185.57,53.67 181.57,51.64 C177.57,49.6 180.5,56 180,60 C179.5,64 177.88,70.11 181.88,67.95 C185.88,65.8 185.88,73.8 181.88,71.95 C177.88,70.11 179.84,76 180,80 C180.16,84 178.5,89.6 182.5,87.62 C186.5,85.64 186.5,93.64 182.5,91.62 C178.5,89.6 180.52,96 180,100 C179.48,104 182.45,109.72 178.45,108.35 C174.45,106.98 174.45,114.98 178.45,112.35 C182.45,109.72 179.38,116 180,120 C180.62,124 177.56,129.48 181.56,127.81 C185.56,126.14 185.56,134.14 181.56,131.81 C177.56,129.48 180.37,136 180,140 C179.63,144 181.4,150.3 177.4,148.56 C173.4,146.83 173.4,154.83 177.4,152.56 C181.4,150.3 179.98,156 180,160 C180.02,164 177.48,170.31 181.48,168.04 C185.48,165.76 185.48,173.76 181.48,172.04 C177.48,170.31 179.91,176 180,180 C180.09,184 178.34,189.02 182.34,187.4 C186.34,185.77 186.34,193.77 182.34,191.4 C178.34,189.02 179.87,196 180,200 M200,0 C200.46,4 198.17,10.61 202.17,8.43 C206.17,6.25 206.17,14.25 202.17,12.43 C198.17,10.61 200.15,16 200,20 C199.85,24 198.59,30.59 202.59,28.42 C206.59,26.26 206.59,34.26 202.59,32.42 C198.59,30.59 199.58,36 200,40 C200.42,44 202.25,48.87 198.25,47.47 C194.25,46.07 194.25,54.07 198.25,51.47 C202.25,48.87 200.64,56 200,60 C199.36,64 201.76,70.56 197.76,68.51 C193.76,66.46 193.76,74.46 197.76,72.51 C201.76,70.56 200.1,76 200,80 C199.9,84 197.5,89.45 201.5,87.99 C205.5,86.53 205.5,94.53 201.5,91.99 C197.5,89.45 199.94,96 200,100 C200.06,104 202.28,111.01 198.28,108.38 C194.28,105.76 194.28,113.76 198.28,112.38 C202.28,111.01 200.4,116 200,120 C199.6,124 197.92,130.06 201.92,127.47 C205.92,124.89 205.92,132.89 201.92,131.47 C197.92,130.06 199.41,136 200,140 C200.59,144 201.76,149.55 197.76,148.04 C193.76,146.53 193.76,154.53 197.76,152.04 C201.76,149.55 200.27,156 200,160 C199.73,164 202.04,170.22 198.04,167.92 C194.04,165.62 194.04,173.62 198.04,171.92 C202.04,170.22 200.04,176 200,180 C199.96,184 198.61,190.43 202.61,188.44 C206.61,186.45 206.61,194.45 202.61,192.44 C198.61,190.43 200.48,196 200,200 M220,0 C219.63,4 222.47,9.82 218.47,7.68 C214.47,5.54 214.47,13.54 218.47,11.68 C222.47,9.82 220.36,16 220,20 C219.64,24 222.1,30.12 218.1,28.63 C214.1,27.13 214.1,35.13 218.1,32.63 C222.1,30.12 220,36 220,40 C220,44 218.01,49.23 222.01,47.5 C226.01,45.77 226.01,53.77 222.01,51.5 C218.01,49.23 220.05,56 220,60 C219.95,64 217.82,69.99 221.82,67.84 C225.82,65.7 225.82,73.7 221.82,71.84 C217.82,69.99 219.57,76 220,80 C220.43,84 218.6,90.1 222.6,88.3 C226.6,86.51 226.6,94.51 222.6,92.3 C218.6,90.1 220.62,96 220,100 C219.38,104 218.53,109.54 222.53,107.4 C226.53,105.25 226.53,113.25 222.53,111.4 C218.53,109.54 220.64,116 220,120 C219.36,124 217.54,130.78 221.54,128.43 C225.54,126.09 225.54,134.09 221.54,132.43 C217.54,130.78 220.04,136 220,140 C219.96,144 222.36,150.15 218.36,147.5 C214.36,144.85 214.36,152.85 218.36,151.5 C222.36,150.15 219.85,156 220,160 C220.15,164 217.6,169.43 221.6,167.4 C225.6,165.37 225.6,173.37 221.6,171.4 C217.6,169.43 219.99,176 220,180 C220.01,184 222.56,188.97 218.56,187.52 C214.56,186.08 214.56,194.08 218.56,191.52 C222.56,188.97 220.04,196 220,200 M240,0 C240.53,4 238.04,10.25 242.04,8.16 C246.04,6.06 246.04,14.06 242.04,12.16 C238.04,10.25 240.13,16 240,20 C239.87,24 238.51,30.74 242.51,28.34 C246.51,25.94 246.51,33.94 242.51,32.34 C238.51,30.74 239.95,36 240,40 C240.05,44 241.96,50.95 237.96,48.64 C233.96,46.33 233.96,54.33 237.96,52.64 C241.96,50.95 240.11,56 240,60 C239.89,64 238.23,70.14 242.23,67.86 C246.23,65.58 246.23,73.58 242.23,71.86 C238.23,70.14 239.48,76 240,80 C240.52,84 238.33,89.52 242.33,87.74 C246.33,85.97 246.33,93.97 242.33,91.74 C238.33,89.52 240.03,96 240,100 C239.97,104 238.19,110.56 242.19,108.46 C246.19,106.36 246.19,114.36 242.19,112.46 C238.19,110.56 239.39,116 240,120 C240.61,124 242.45,130.37 238.45,127.75 C234.45,125.14 234.45,133.14 238.45,131.75 C242.45,130.37 240.64,136 240,140 C239.36,144 238.08,149.84 242.08,147.99 C246.08,146.14 246.08,154.14 242.08,151.99 C238.08,149.84 239.39,156 240,160 C240.61,164 242.41,169.98 238.41,168.59 C234.41,167.21 234.41,175.21 238.41,172.59 C242.41,169.98 240.58,176 240,180 C239.42,184 242.48,190.53 238.48,188.3 C234.48,186.06 234.48,194.06 238.48,192.3 C242.48,190.53 240.25,196 240,200 M260,0 C260.1,4 257.6,10.17 261.6,7.88 C265.6,5.58 265.6,13.58 261.6,11.88 C257.6,10.17 259.85,16 260,20 C260.15,24 261.96,29.68 257.96,27.93 C253.96,26.18 253.96,34.18 257.96,31.93 C261.96,29.68 259.5,36 260,40 C260.5,44 261.69,49.44 257.69,47.99 C253.69,46.54 253.69,54.54 257.69,51.99 C261.69,49.44 259.58,56 260,60 C260.42,64 257.98,69.63 261.98,67.44 C265.98,65.25 265.98,73.25 261.98,71.44 C257.98,69.63 259.52,76 260,80 C260.48,84 261.63,90.16 257.63,87.84 C253.63,85.52 253.63,93.52 257.63,91.84 C261.63,90.16 259.97,96 260,100 C260.03,104 261.94,109.73 257.94,107.7 C253.94,105.67 253.94,113.67 257.94,111.7 C261.94,109.73 260.03,116 260,120 C259.97,124 257.98,130.32 261.98,128.6 C265.98,126.88 265.98,134.88 261.98,132.6 C257.98,130.32 259.48,136 260,140 C260.52,144 257.54,150.56 261.54,148.23 C265.54,145.9 265.54,153.9 261.54,152.23 C257.54,150.56 260.63,156 260,160 C259.37,164 258.04,169.98 262.04,168.42 C266.04,166.85 266.04,174.85 262.04,172.42 C258.04,169.98 259.34,176 260,180 C260.66,184 258.57,189.97 262.57,187.79 C266.57,185.61 266.57,193.61 262.57,191.79 C258.57,189.97 260.23,196 260,200 M280,0 C280.61,4 281.55,10.62 277.55,8.04 C273.55,5.45 273.55,13.45 277.55,12.04 C281.55,10.62 279.72,16 280,20 C280.28,24 278.64,30.3 282.64,28.47 C286.64,26.64 286.64,34.64 282.64,32.47 C278.64,30.3 280.36,36 280,40 C279.64,44 277.62,48.92 281.62,47.4 C285.62,45.88 285.62,53.88 281.62,51.4 C277.62,48.92 280.51,56 280,60 C279.49,64 281.44,69.48 277.44,67.53 C273.44,65.58 273.44,73.58 277.44,71.53 C281.44,69.48 279.51,76 280,80 C280.49,84 278.2,89.71 282.2,88.03 C286.2,86.34 286.2,94.34 282.2,92.03 C278.2,89.71 280.2,96 280,100 C279.8,104 282.33,110.26 278.33,108.06 C274.33,105.86 274.33,113.86 278.33,112.06 C282.33,110.26 280.04,116 280,120 C279.96,124 281.48,130.78 277.48,128.4 C273.48,126.01 273.48,134.01 277.48,132.4 C281.48,130.78 279.6,136 280,140 C280.4,144 277.46,149.19 281.46,147.57 C285.46,145.95 285.46,153.95 281.46,151.57 C277.46,149.19 280.16,156 280,160 C279.84,164 278.53,168.78 282.53,167.39 C286.53,166.01 286.53,174.01 282.53,171.39 C278.53,168.78 280.2,176 280,180 C279.8,184 282.46,190.46 278.46,188.47 C274.46,186.48 274.46,194.48 278.46,192.47 C282.46,190.46 279.4,196 280,200 M0,0 L300,0 L300,200 L0,200 L0,0 "></path></svg>