<svg xmlns="http://www.w3.org/2000/svg" version="1.0" width="100mm" height="60mm" viewBox="0 0 100 60"><path fill="none" stroke="black" stroke-width="0.1" d="M0,10 C2.5,10.03 6.73,11.03 5.12,9.03 C3.51,7.03 8.51,7.03 7.62,9.03 C6.73,11.03 10,9.78 12.5,10 C15,10.22 18.95,11.15 17.74,9.15 C16.54,7.15 21.54,7.15 20.24,9.15 C18.95,11.15 22.5,10.11 25,10 C27.5,9.89 31.47,8.87 30.05,10.87 C28.63,12.87 33.63,12.87 32.55,10.87 C31.47,8.87 35,9.73 37.5,10 C40,10.27 44.15,10.75 42.64,8.75 C41.13,6.75 46.13,6.75 45.14,8.75 C44.15,10.75 47.5,10.16 50,10 C52.5,9.84 56.19,11.23 54.79,9.23 C53.39,7.23 58.39,7.23 57.29,9.23 C56.19,11.23 60,10.27 62.5,10 C65,9.73 68.98,11.12 67.38,9.12 C65.77,7.12 70.77,7.12 69.88,9.12 C68.98,11.12 72.5,9.9 75,10 C77.5,10.1 81.23,11.24 79.96,9.24 C78.69,7.24 83.69,7.24 82.46,9.24 C81.23,11.24 85,10.25 87.5,10 C90,9.75 93.84,11.15 92.28,9.15 C90.72,7.15 95.72,7.15 94.78,9.15 C93.84,11.15 97.5,9.91 100,10 M0,20 C2.5,20.19 6.12,21.24 5.1,19.24 C4.07,17.24 9.07,17.24 7.6,19.24 C6.12,21.24 10,20.24 12.5,20 C15,19.76 19.18,20.68 17.65,18.68 C16.13,16.68 21.13,16.68 20.15,18.68 C19.18,20.68 22.5,19.92 25,20 C27.5,20.08 30.97,18.89 30.01,20.89 C29.04,22.89 34.04,22.89 32.51,20.89 C30.97,18.89 35,20.28 37.5,20 C40,19.72 43.19,21.31 42.31,19.31 C41.42,17.31 46.42,17.31 44.81,19.31 C43.19,21.31 47.5,19.75 50,20 C52.5,20.25 56.57,20.87 55.14,18.87 C53.72,16.87 58.72,16.87 57.64,18.87 C56.57,20.87 60,19.87 62.5,20 C65,20.13 68.1,21.2 67.11,19.2 C66.12,17.2 71.12,17.2 69.61,19.2 C68.1,21.2 72.5,20.09 75,20 C77.5,19.91 81.02,20.85 79.6,18.85 C78.18,16.85 83.18,16.85 82.1,18.85 C81.02,20.85 85,20.18 87.5,20 C90,19.82 94.12,19.1 92.86,21.1 C91.6,23.1 96.6,23.1 95.36,21.1 C94.12,19.1 97.5,19.68 100,20 M0,30 C2.5,30.2 6.05,29.06 5.09,31.06 C4.13,33.06 9.13,33.06 7.59,31.06 C6.05,29.06 10,30.08 12.5,30 C15,29.92 18.24,30.95 17.31,28.95 C16.38,26.95 21.38,26.95 19.81,28.95 C18.24,30.95 22.5,29.89 25,30 C27.5,30.11 31.84,29.04 30.29,31.04 C28.75,33.04 33.75,33.04 32.79,31.04 C31.84,29.04 35,29.91 37.5,30 C40,30.09 43.94,31.26 42.7,29.26 C41.45,27.26 46.45,27.26 45.2,29.26 C43.94,31.26 47.5,29.79 50,30 C52.5,30.21 56.43,28.87 55.15,30.87 C53.86,32.87 58.86,32.87 57.65,30.87 C56.43,28.87 60,30.33 62.5,30 C65,29.67 68.92,28.92 67.86,30.92 C66.79,32.92 71.79,32.92 70.36,30.92 C68.92,28.92 72.5,30.06 75,30 C77.5,29.94 81.47,29.14 79.91,31.14 C78.35,33.14 83.35,33.14 82.41,31.14 C81.47,29.14 85,30.07 87.5,30 C90,29.93 93.22,30.67 92.15,28.67 C91.08,26.67 96.08,26.67 94.65,28.67 C93.22,30.67 97.5,30.21 100,30 M0,40 C2.5,39.84 6.25,38.78 4.64,40.78 C3.03,42.78 8.03,42.78 7.14,40.78 C6.25,38.78 10,40.13 12.5,40 C15,39.87 18.24,38.76 17.13,40.76 C16.02,42.76 21.02,42.76 19.63,40.76 C18.24,38.76 22.5,40.11 25,40 C27.5,39.89 31.26,41.23 30.37,39.23 C29.47,37.23 34.47,37.23 32.87,39.23 C31.26,41.23 35,39.81 37.5,40 C40,40.19 43.26,41.22 42.24,39.22 C41.23,37.22 46.23,37.22 44.74,39.22 C43.26,41.22 47.5,39.85 50,40 C52.5,40.15 56.16,39.22 55.01,41.22 C53.86,43.22 58.86,43.22 57.51,41.22 C56.16,39.22 60,39.72 62.5,40 C65,40.28 69.29,41.22 67.76,39.22 C66.23,37.22 71.23,37.22 70.26,39.22 C69.29,41.22 72.5,39.81 75,40 C77.5,40.19 81.22,40.77 80.01,38.77 C78.79,36.77 83.79,36.77 82.51,38.77 C81.22,40.77 85,39.71 87.5,40 C90,40.29 93.05,39.07 92.15,41.07 C91.26,43.07 96.26,43.07 94.65,41.07 C93.05,39.07 97.5,40.29 100,40 M0,50 C2.5,50.04 5.98,48.79 4.79,50.79 C3.6,52.79 8.6,52.79 7.29,50.79 C5.98,48.79 10,49.69 12.5,50 C15,50.31 18.81,50.94 17.91,48.94 C17,46.94 22,46.94 20.41,48.94 C18.81,50.94 22.5,50.21 25,50 C27.5,49.79 30.87,51.25 29.82,49.25 C28.77,47.25 33.77,47.25 32.32,49.25 C30.87,51.25 35,49.72 37.5,50 C40,50.28 43.17,50.76 42.26,48.76 C41.34,46.76 46.34,46.76 44.76,48.76 C43.17,50.76 47.5,49.9 50,50 C52.5,50.1 56.15,50.89 54.68,48.89 C53.2,46.89 58.2,46.89 57.18,48.89 C56.15,50.89 60,50.13 62.5,50 C65,49.87 68.54,50.73 67.36,48.73 C66.18,46.73 71.18,46.73 69.86,48.73 C68.54,50.73 72.5,50.29 75,50 C77.5,49.71 81.01,51.28 79.7,49.28 C78.39,47.28 83.39,47.28 82.2,49.28 C81.01,51.28 85,49.93 87.5,50 C90,50.07 93.99,50.89 92.76,48.89 C91.52,46.89 96.52,46.89 95.26,48.89 C93.99,50.89 97.5,50.06 100,50 M12.5,0 C12.44,2 14.11,5.18 11.61,3.95 C9.11,2.71 9.11,6.71 11.61,5.95 C14.11,5.18 12.9,8 12.5,10 C12.1,12 13.66,14.95 11.16,13.7 C8.66,12.44 8.66,16.44 11.16,15.7 C13.66,14.95 12.7,18 12.5,20 C12.3,22 13.57,24.88 11.07,23.74 C8.57,22.6 8.57,26.6 11.07,25.74 C13.57,24.88 12.59,28 12.5,30 C12.41,32 11.61,34.54 14.11,33.8 C16.61,33.06 16.61,37.06 14.11,35.8 C11.61,34.54 12.35,38 12.5,40 C12.65,42 13.62,44.55 11.12,43.77 C8.62,42.99 8.62,46.99 11.12,45.77 C13.62,44.55 12.28,48 12.5,50 C12.72,52 13.72,55.43 11.22,54.15 C8.72,52.88 8.72,56.88 11.22,56.15 C13.72,55.43 12.42,58 12.5,60 M25,0 C25.36,2 23.64,4.88 26.14,4.12 C28.64,3.36 28.64,7.36 26.14,6.12 C23.64,4.88 25.23,8 25,10 C24.77,12 23.74,14.74 26.24,13.76 C28.74,12.79 28.74,16.79 26.24,15.76 C23.74,14.74 25.02,18 25,20 C24.98,22 23.63,24.77 26.13,23.7 C28.63,22.63 28.63,26.63 26.13,25.7 C23.63,24.77 25.01,28 25,30 C24.99,32 24.14,35.25 26.64,34.25 C29.14,33.25 29.14,37.25 26.64,36.25 C24.14,35.25 24.94,38 25,40 C25.06,42 25.99,44.55 23.49,43.67 C20.99,42.79 20.99,46.79 23.49,45.67 C25.99,44.55 25.13,48 25,50 C24.87,52 23.4,54.95 25.9,54.04 C28.4,53.13 28.4,57.13 25.9,56.04 C23.4,54.95 25.13,58 25,60 M37.5,0 C37.9,2 39.1,4.95 36.6,4.18 C34.1,3.41 34.1,7.41 36.6,6.18 C39.1,4.95 37.87,8 37.5,10 C37.13,12 39.11,14.8 36.61,13.72 C34.11,12.64 34.11,16.64 36.61,15.72 C39.11,14.8 37.16,18 37.5,20 C37.84,22 38.44,24.88 35.94,24.16 C33.44,23.43 33.44,27.43 35.94,26.16 C38.44,24.88 37.31,28 37.5,30 C37.69,32 36.49,34.81 38.99,33.91 C41.49,33.01 41.49,37.01 38.99,35.91 C36.49,34.81 37.41,38 37.5,40 C37.59,42 38.74,44.97 36.24,44.12 C33.74,43.28 33.74,47.28 36.24,46.12 C38.74,44.97 37.36,48 37.5,50 C37.64,52 35.99,54.97 38.49,53.95 C40.99,52.92 40.99,56.92 38.49,55.95 C35.99,54.97 37.68,58 37.5,60 M50,0 C49.92,2 50.95,4.94 48.45,3.87 C45.95,2.79 45.95,6.79 48.45,5.87 C50.95,4.94 50.08,8 50,10 C49.92,12 48.66,15.3 51.16,14.04 C53.66,12.78 53.66,16.78 51.16,16.04 C48.66,15.3 50.09,18 50,20 C49.91,22 51.59,24.87 49.09,23.93 C46.59,22.99 46.59,26.99 49.09,25.93 C51.59,24.87 49.95,28 50,30 C50.05,32 51.58,34.88 49.08,34.17 C46.58,33.46 46.58,37.46 49.08,36.17 C51.58,34.88 50.15,38 50,40 C49.85,42 48.92,44.77 51.42,43.96 C53.92,43.15 53.92,47.15 51.42,45.96 C48.92,44.77 49.98,48 50,50 C50.02,52 49.04,55.23 51.54,54.08 C54.04,52.92 54.04,56.92 51.54,56.08 C49.04,55.23 50.23,58 50,60 M62.5,0 C62.62,2 63.71,5.56 61.21,4.28 C58.71,2.99 58.71,6.99 61.21,6.28 C63.71,5.56 62.41,8 62.5,10 C62.59,12 61.15,14.7 63.65,13.75 C66.15,12.8 66.15,16.8 63.65,15.75 C61.15,14.7 62.14,18 62.5,20 C62.86,22 63.68,25.09 61.18,24 C58.68,22.91 58.68,26.91 61.18,26 C63.68,25.09 62.76,28 62.5,30 C62.24,32 64.11,35.24 61.61,34.01 C59.11,32.77 59.11,36.77 61.61,36.01 C64.11,35.24 62.12,38 62.5,40 C62.88,42 61.59,45.14 64.09,44.03 C66.59,42.92 66.59,46.92 64.09,46.03 C61.59,45.14 62.55,48 62.5,50 C62.45,52 61.59,54.95 64.09,54 C66.59,53.05 66.59,57.05 64.09,56 C61.59,54.95 62.2,58 62.5,60 M75,0 C75.09,2 76.42,5.17 73.92,4.25 C71.42,3.33 71.42,7.33 73.92,6.25 C76.42,5.17 74.82,8 75,10 C75.18,12 74.08,15.19 76.58,13.96 C79.08,12.74 79.08,16.74 76.58,15.96 C74.08,15.19 75.12,18 75,20 C74.88,22 76.15,24.86 73.65,23.85 C71.15,22.83 71.15,26.83 73.65,25.85 C76.15,24.86 75.21,28 75,30 C74.79,32 74.14,35.01 76.64,34.3 C79.14,33.59 79.14,37.59 76.64,36.3 C74.14,35.01 74.66,38 75,40 C75.34,42 76.09,44.52 73.59,43.72 C71.09,42.92 71.09,46.92 73.59,45.72 C76.09,44.52 75,48 75,50 C75,52 74.08,55.02 76.58,54.32 C79.08,53.62 79.08,57.62 76.58,56.32 C74.08,55.02 74.86,58 75,60 M87.5,0 C87.45,2 88.64,4.68 86.14,3.75 C83.64,2.82 83.64,6.82 86.14,5.75 C88.64,4.68 87.42,8 87.5,10 C87.58,12 86.64,15.1 89.14,13.97 C91.64,12.83 91.64,16.83 89.14,15.97 C86.64,15.1 87.88,18 87.5,20 C87.12,22 85.86,25.15 88.36,24.07 C90.86,23 90.86,27 88.36,26.07 C85.86,25.15 87.45,28 87.5,30 C87.55,32 88.37,34.95 85.87,33.82 C83.37,32.68 83.37,36.68 85.87,35.82 C88.37,34.95 87.42,38 87.5,40 C87.58,42 86.06,45.16 88.56,44.21 C91.06,43.26 91.06,47.26 88.56,46.21 C86.06,45.16 87.26,48 87.5,50 C87.74,52 86.12,54.88 88.62,53.78 C91.12,52.68 91.12,56.68 88.62,55.78 C86.12,54.88 87.49,58 87.5,60 M0,0 L100,0 L100,60 L0,60 L0,0 "></path></svg>