<svg xmlns="http://www.w3.org/2000/svg" version="1.0" width="100mm" height="60mm" viewBox="0 0 100 60"><path fill="none" stroke="black" stroke-width="0.1" d="M0,10 C2.5,10.03 6.62,10.82 5.34,9.22 C4.07,7.62 8.07,7.62 7.34,9.22 C6.62,10.82 10,9.83 12.5,10 C15,10.17 18.9,10.92 17.93,9.32 C16.97,7.72 20.97,7.72 19.93,9.32 C18.9,10.92 22.5,10.08 25,10 C27.5,9.92 31.42,9.1 30.29,10.7 C29.16,12.3 33.16,12.3 32.29,10.7 C31.42,9.1 35,9.8 37.5,10 C40,10.2 44.05,10.61 42.86,9.01 C41.66,7.41 45.66,7.41 44.86,9.01 C44.05,10.61 47.5,10.12 50,10 C52.5,9.88 56.21,10.98 55.09,9.38 C53.98,7.78 57.98,7.78 57.09,9.38 C56.21,10.98 60,10.21 62.5,10 C65,9.79 68.92,10.89 67.66,9.29 C66.39,7.69 70.39,7.69 69.66,9.29 C68.92,10.89 72.5,9.93 75,10 C77.5,10.07 81.24,10.98 80.22,9.38 C79.21,7.78 83.21,7.78 82.22,9.38 C81.24,10.98 85,10.19 87.5,10 C90,9.81 93.82,10.92 92.58,9.32 C91.35,7.72 95.35,7.72 94.58,9.32 C93.82,10.92 97.5,9.93 100,10 M0,20 C2.5,20.14 6.15,20.98 5.32,19.38 C4.49,17.78 8.49,17.78 7.32,19.38 C6.15,20.98 10,20.19 12.5,20 C15,19.81 19.08,20.56 17.87,18.96 C16.66,17.36 20.66,17.36 19.87,18.96 C19.08,20.56 22.5,19.94 25,20 C27.5,20.06 31.04,19.11 30.26,20.71 C29.47,22.31 33.47,22.31 32.26,20.71 C31.04,19.11 35,20.21 37.5,20 C40,19.79 43.33,21.03 42.6,19.43 C41.88,17.83 45.88,17.83 44.6,19.43 C43.33,21.03 47.5,19.81 50,20 C52.5,20.19 56.49,20.7 55.36,19.1 C54.23,17.5 58.23,17.5 57.36,19.1 C56.49,20.7 60,19.9 62.5,20 C65,20.1 68.26,20.95 67.46,19.35 C66.65,17.75 70.65,17.75 69.46,19.35 C68.26,20.95 72.5,20.07 75,20 C77.5,19.93 81.08,20.69 79.95,19.09 C78.82,17.49 82.82,17.49 81.95,19.09 C81.08,20.69 85,20.14 87.5,20 C90,19.86 94.03,19.27 93.02,20.87 C92.01,22.47 96.01,22.47 95.02,20.87 C94.03,19.27 97.5,19.76 100,20 M0,30 C2.5,30.15 6.1,29.25 5.32,30.85 C4.54,32.45 8.54,32.45 7.32,30.85 C6.1,29.25 10,30.06 12.5,30 C15,29.94 18.36,30.76 17.6,29.16 C16.85,27.56 20.85,27.56 19.6,29.16 C18.36,30.76 22.5,29.92 25,30 C27.5,30.08 31.7,29.23 30.47,30.83 C29.25,32.43 33.25,32.43 32.47,30.83 C31.7,29.23 35,29.93 37.5,30 C40,30.07 43.9,31 42.9,29.4 C41.9,27.8 45.9,27.8 44.9,29.4 C43.9,31 47.5,29.84 50,30 C52.5,30.16 56.39,29.1 55.36,30.7 C54.34,32.3 58.34,32.3 57.36,30.7 C56.39,29.1 60,30.25 62.5,30 C65,29.75 68.88,29.14 68.02,30.74 C67.16,32.34 71.16,32.34 70.02,30.74 C68.88,29.14 72.5,30.04 75,30 C77.5,29.96 81.42,29.31 80.18,30.91 C78.95,32.51 82.95,32.51 82.18,30.91 C81.42,29.31 85,30.05 87.5,30 C90,29.95 93.35,30.55 92.48,28.95 C91.62,27.35 95.62,27.35 94.48,28.95 C93.35,30.55 97.5,30.16 100,30 M0,40 C2.5,39.88 6.25,39.04 4.98,40.64 C3.7,42.24 7.7,42.24 6.98,40.64 C6.25,39.04 10,40.1 12.5,40 C15,39.9 18.37,39.01 17.47,40.61 C16.57,42.21 20.57,42.21 19.47,40.61 C18.37,39.01 22.5,40.09 25,40 C27.5,39.91 31.26,40.97 30.53,39.37 C29.8,37.77 33.8,37.77 32.53,39.37 C31.26,40.97 35,39.86 37.5,40 C40,40.14 43.38,40.96 42.56,39.36 C41.73,37.76 45.73,37.76 44.56,39.36 C43.38,40.96 47.5,39.88 50,40 C52.5,40.12 56.18,39.36 55.26,40.96 C54.33,42.56 58.33,42.56 57.26,40.96 C56.18,39.36 60,39.79 62.5,40 C65,40.21 69.16,40.97 67.95,39.37 C66.74,37.77 70.74,37.77 69.95,39.37 C69.16,40.97 72.5,39.86 75,40 C77.5,40.14 81.23,40.63 80.25,39.03 C79.28,37.43 83.28,37.43 82.25,39.03 C81.23,40.63 85,39.78 87.5,40 C90,40.22 93.22,39.25 92.49,40.85 C91.75,42.45 95.75,42.45 94.49,40.85 C93.22,39.25 97.5,40.22 100,40 M0,50 C2.5,50.03 6.05,49.04 5.09,50.64 C4.14,52.24 8.14,52.24 7.09,50.64 C6.05,49.04 10,49.77 12.5,50 C15,50.23 18.8,50.76 18.06,49.16 C17.32,47.56 21.32,47.56 20.06,49.16 C18.8,50.76 22.5,50.16 25,50 C27.5,49.84 30.96,50.99 30.11,49.39 C29.27,47.79 33.27,47.79 32.11,49.39 C30.96,50.99 35,49.79 37.5,50 C40,50.21 43.31,50.62 42.56,49.02 C41.82,47.42 45.82,47.42 44.56,49.02 C43.31,50.62 47.5,49.92 50,50 C52.5,50.08 56.17,50.72 55.01,49.12 C53.84,47.52 57.84,47.52 57.01,49.12 C56.17,50.72 60,50.1 62.5,50 C65,49.9 68.59,50.59 67.65,48.99 C66.7,47.39 70.7,47.39 69.65,48.99 C68.59,50.59 72.5,50.22 75,50 C77.5,49.78 81.07,51.01 80.02,49.41 C78.98,47.81 82.98,47.81 82.02,49.41 C81.07,51.01 85,49.95 87.5,50 C90,50.05 93.93,50.71 92.95,49.11 C91.96,47.51 95.96,47.51 94.95,49.11 C93.93,50.71 97.5,50.04 100,50 M12.5,0 C12.46,2 13.77,5.14 11.77,4.16 C9.77,3.18 9.77,6.38 11.77,5.76 C13.77,5.14 12.8,8 12.5,10 C12.2,12 13.44,14.96 11.44,13.97 C9.44,12.98 9.44,16.18 11.44,15.57 C13.44,14.96 12.65,18 12.5,20 C12.35,22 13.37,24.91 11.37,24 C9.37,23.1 9.37,26.3 11.37,25.6 C13.37,24.91 12.57,28 12.5,30 C12.43,32 11.77,34.65 13.77,34.05 C15.77,33.44 15.77,36.64 13.77,35.65 C11.77,34.65 12.39,38 12.5,40 C12.61,42 13.4,44.66 11.4,44.03 C9.4,43.39 9.4,46.59 11.4,45.63 C13.4,44.66 12.33,48 12.5,50 C12.67,52 13.47,55.32 11.47,54.31 C9.47,53.31 9.47,56.51 11.47,55.91 C13.47,55.32 12.44,58 12.5,60 M25,0 C25.27,2 23.91,4.91 25.91,4.29 C27.91,3.68 27.91,6.88 25.91,5.89 C23.91,4.91 25.17,8 25,10 C24.83,12 23.99,14.8 25.99,14.02 C27.99,13.24 27.99,16.44 25.99,15.62 C23.99,14.8 25.01,18 25,20 C24.99,22 23.91,24.83 25.91,23.97 C27.91,23.12 27.91,26.32 25.91,25.57 C23.91,24.83 25,28 25,30 C25,32 24.29,35.19 26.29,34.39 C28.29,33.59 28.29,36.79 26.29,35.99 C24.29,35.19 24.95,38 25,40 C25.05,42 25.8,44.66 23.8,43.95 C21.8,43.24 21.8,46.44 23.8,45.55 C25.8,44.66 25.1,48 25,50 C24.9,52 23.73,54.96 25.73,54.23 C27.73,53.5 27.73,56.7 25.73,55.83 C23.73,54.96 25.1,58 25,60 M37.5,0 C37.8,2 38.77,4.96 36.77,4.33 C34.77,3.71 34.77,6.91 36.77,5.93 C38.77,4.96 37.78,8 37.5,10 C37.22,12 38.77,14.85 36.77,13.99 C34.77,13.13 34.77,16.33 36.77,15.59 C38.77,14.85 37.24,18 37.5,20 C37.76,22 38.26,24.91 36.26,24.32 C34.26,23.73 34.26,26.93 36.26,25.92 C38.26,24.91 37.36,28 37.5,30 C37.64,32 36.68,34.85 38.68,34.13 C40.68,33.41 40.68,36.61 38.68,35.73 C36.68,34.85 37.43,38 37.5,40 C37.57,42 38.49,44.98 36.49,44.29 C34.49,43.61 34.49,46.81 36.49,45.89 C38.49,44.98 37.39,48 37.5,50 C37.61,52 36.3,54.98 38.3,54.16 C40.3,53.34 40.3,56.54 38.3,55.76 C36.3,54.98 37.64,58 37.5,60 M50,0 C49.94,2 50.77,4.96 48.77,4.1 C46.77,3.24 46.77,6.44 48.77,5.7 C50.77,4.96 50.06,8 50,10 C49.94,12 48.93,15.23 50.93,14.23 C52.93,13.23 52.93,16.43 50.93,15.83 C48.93,15.23 50.07,18 50,20 C49.93,22 51.26,24.9 49.26,24.15 C47.26,23.39 47.26,26.59 49.26,25.75 C51.26,24.9 49.96,28 50,30 C50.04,32 51.25,34.91 49.25,34.33 C47.25,33.75 47.25,36.95 49.25,35.93 C51.25,34.91 50.12,38 50,40 C49.88,42 49.13,44.82 51.13,44.17 C53.13,43.52 53.13,46.72 51.13,45.77 C49.13,44.82 49.99,48 50,50 C50.01,52 49.22,55.17 51.22,54.26 C53.22,53.34 53.22,56.54 51.22,55.86 C49.22,55.17 50.18,58 50,60 M62.5,0 C62.59,2 63.47,5.43 61.47,4.41 C59.47,3.39 59.47,6.59 61.47,6.01 C63.47,5.43 62.43,8 62.5,10 C62.57,12 61.42,14.77 63.42,14.01 C65.42,13.25 65.42,16.45 63.42,15.61 C61.42,14.77 62.23,18 62.5,20 C62.77,22 63.44,25.07 61.44,24.2 C59.44,23.33 59.44,26.53 61.44,25.8 C63.44,25.07 62.69,28 62.5,30 C62.31,32 63.77,35.18 61.77,34.2 C59.77,33.23 59.77,36.43 61.77,35.8 C63.77,35.18 62.21,38 62.5,40 C62.79,42 61.76,45.11 63.76,44.22 C65.76,43.34 65.76,46.54 63.76,45.82 C61.76,45.11 62.53,48 62.5,50 C62.47,52 61.76,54.96 63.76,54.2 C65.76,53.43 65.76,56.63 63.76,55.8 C61.76,54.96 62.27,58 62.5,60 M75,0 C75.07,2 76.13,5.13 74.13,4.39 C72.13,3.65 72.13,6.85 74.13,5.99 C76.13,5.13 74.86,8 75,10 C75.14,12 74.25,15.14 76.25,14.17 C78.25,13.2 78.25,16.4 76.25,15.77 C74.25,15.14 75.09,18 75,20 C74.91,22 75.93,24.9 73.93,24.08 C71.93,23.27 71.93,26.47 73.93,25.68 C75.93,24.9 75.16,28 75,30 C74.84,32 74.3,35 76.3,34.43 C78.3,33.85 78.3,37.05 76.3,36.03 C74.3,35 74.74,38 75,40 C75.26,42 75.88,44.64 73.88,43.99 C71.88,43.34 71.88,46.54 73.88,45.59 C75.88,44.64 75,48 75,50 C75,52 74.25,55.02 76.25,54.44 C78.25,53.87 78.25,57.07 76.25,56.04 C74.25,55.02 74.89,58 75,60 M87.5,0 C87.46,2 88.41,4.76 86.41,4.01 C84.41,3.26 84.41,6.46 86.41,5.61 C88.41,4.76 87.44,8 87.5,10 C87.56,12 86.79,15.08 88.79,14.17 C90.79,13.27 90.79,16.47 88.79,15.77 C86.79,15.08 87.79,18 87.5,20 C87.21,22 86.2,25.11 88.2,24.25 C90.2,23.4 90.2,26.6 88.2,25.85 C86.2,25.11 87.46,28 87.5,30 C87.54,32 88.21,34.96 86.21,34.06 C84.21,33.16 84.21,36.36 86.21,35.66 C88.21,34.96 87.44,38 87.5,40 C87.56,42 86.36,45.12 88.36,44.36 C90.36,43.6 90.36,46.8 88.36,45.96 C86.36,45.12 87.32,48 87.5,50 C87.68,52 86.4,54.91 88.4,54.03 C90.4,53.16 90.4,56.36 88.4,55.63 C86.4,54.91 87.5,58 87.5,60 M0,0 L100,0 L100,60 L0,60 L0,0 "></path></svg>